<mxfile host="Electron" modified="2024-01-27T02:15:08.757Z" agent="Mozilla/5.0 (Windows NT 10.0; Win64; x64) AppleWebKit/537.36 (KHTML, like Gecko) draw.io/21.6.8 Chrome/114.0.5735.289 Electron/25.5.0 Safari/537.36" etag="Er_E18r8sckbdgFl3vkW" version="21.6.8" type="device">
  <diagram name="Página-1" id="M-aVUU8le2SYxHli1-5D">
    <mxGraphModel dx="1480" dy="1693" grid="1" gridSize="10" guides="1" tooltips="1" connect="1" arrows="1" fold="1" page="1" pageScale="1" pageWidth="1169" pageHeight="827" math="0" shadow="0">
      <root>
        <mxCell id="0" />
        <mxCell id="1" parent="0" />
        <mxCell id="I0plkO9ro6BUK9R8KUUb-137" value="TIENE" style="rhombus;whiteSpace=wrap;html=1;strokeWidth=2;" parent="1" vertex="1">
          <mxGeometry x="1230" y="-260" width="60" height="92" as="geometry" />
        </mxCell>
        <mxCell id="I0plkO9ro6BUK9R8KUUb-64" value="EMPLEADO" style="rounded=0;whiteSpace=wrap;html=1;strokeWidth=2;" parent="1" vertex="1">
          <mxGeometry x="645" y="-130" width="120" height="60" as="geometry" />
        </mxCell>
        <mxCell id="I0plkO9ro6BUK9R8KUUb-65" value="&lt;u&gt;Usuario&lt;/u&gt;" style="rounded=1;whiteSpace=wrap;html=1;arcSize=50;imageHeight=24;" parent="1" vertex="1">
          <mxGeometry x="552.5" y="-180" width="90" height="30" as="geometry" />
        </mxCell>
        <mxCell id="I0plkO9ro6BUK9R8KUUb-66" value="Contraseña" style="rounded=1;whiteSpace=wrap;html=1;arcSize=50;" parent="1" vertex="1">
          <mxGeometry x="720" y="-220" width="110" height="27" as="geometry" />
        </mxCell>
        <mxCell id="I0plkO9ro6BUK9R8KUUb-67" value="Nombre completo" style="rounded=1;whiteSpace=wrap;html=1;arcSize=50;" parent="1" vertex="1">
          <mxGeometry x="570" y="-220" width="140" height="27" as="geometry" />
        </mxCell>
        <mxCell id="I0plkO9ro6BUK9R8KUUb-68" value="Labor" style="rounded=1;whiteSpace=wrap;html=1;arcSize=50;" parent="1" vertex="1">
          <mxGeometry x="770" y="-180" width="80" height="30" as="geometry" />
        </mxCell>
        <mxCell id="I0plkO9ro6BUK9R8KUUb-70" value="" style="endArrow=none;html=1;rounded=0;entryX=0.5;entryY=1;entryDx=0;entryDy=0;exitX=0;exitY=0;exitDx=0;exitDy=0;" parent="1" source="I0plkO9ro6BUK9R8KUUb-64" target="I0plkO9ro6BUK9R8KUUb-65" edge="1">
          <mxGeometry width="50" height="50" relative="1" as="geometry">
            <mxPoint x="575" y="40" as="sourcePoint" />
            <mxPoint x="625" y="-10" as="targetPoint" />
          </mxGeometry>
        </mxCell>
        <mxCell id="I0plkO9ro6BUK9R8KUUb-71" value="" style="endArrow=none;html=1;rounded=0;entryX=0.5;entryY=1;entryDx=0;entryDy=0;exitX=0.25;exitY=0;exitDx=0;exitDy=0;" parent="1" source="I0plkO9ro6BUK9R8KUUb-64" target="I0plkO9ro6BUK9R8KUUb-67" edge="1">
          <mxGeometry width="50" height="50" relative="1" as="geometry">
            <mxPoint x="545" y="90" as="sourcePoint" />
            <mxPoint x="595" y="40" as="targetPoint" />
          </mxGeometry>
        </mxCell>
        <mxCell id="I0plkO9ro6BUK9R8KUUb-72" value="" style="endArrow=none;html=1;rounded=0;entryX=0.5;entryY=1;entryDx=0;entryDy=0;exitX=0.75;exitY=0;exitDx=0;exitDy=0;" parent="1" source="I0plkO9ro6BUK9R8KUUb-64" target="I0plkO9ro6BUK9R8KUUb-66" edge="1">
          <mxGeometry width="50" height="50" relative="1" as="geometry">
            <mxPoint x="715" y="60" as="sourcePoint" />
            <mxPoint x="765" y="10" as="targetPoint" />
          </mxGeometry>
        </mxCell>
        <mxCell id="I0plkO9ro6BUK9R8KUUb-73" value="" style="endArrow=none;html=1;rounded=0;entryX=0.5;entryY=1;entryDx=0;entryDy=0;exitX=1;exitY=0;exitDx=0;exitDy=0;" parent="1" source="I0plkO9ro6BUK9R8KUUb-64" target="I0plkO9ro6BUK9R8KUUb-68" edge="1">
          <mxGeometry width="50" height="50" relative="1" as="geometry">
            <mxPoint x="795" y="100" as="sourcePoint" />
            <mxPoint x="845" y="50" as="targetPoint" />
          </mxGeometry>
        </mxCell>
        <mxCell id="I0plkO9ro6BUK9R8KUUb-84" value="CLIENTE" style="rounded=0;whiteSpace=wrap;html=1;strokeWidth=2;" parent="1" vertex="1">
          <mxGeometry x="660" y="-439" width="120" height="60" as="geometry" />
        </mxCell>
        <mxCell id="I0plkO9ro6BUK9R8KUUb-85" value="&lt;u&gt;Número de Pasaporte&lt;/u&gt;" style="rounded=1;whiteSpace=wrap;html=1;arcSize=50;imageHeight=24;" parent="1" vertex="1">
          <mxGeometry x="525" y="-500" width="145" height="31" as="geometry" />
        </mxCell>
        <mxCell id="I0plkO9ro6BUK9R8KUUb-86" value="Nombre" style="rounded=1;whiteSpace=wrap;html=1;arcSize=50;imageHeight=24;" parent="1" vertex="1">
          <mxGeometry x="620" y="-550" width="100" height="28" as="geometry" />
        </mxCell>
        <mxCell id="I0plkO9ro6BUK9R8KUUb-87" value="Número de Tarjeta" style="rounded=1;whiteSpace=wrap;html=1;arcSize=50;imageHeight=24;" parent="1" vertex="1">
          <mxGeometry x="730" y="-550" width="120" height="28" as="geometry" />
        </mxCell>
        <mxCell id="I0plkO9ro6BUK9R8KUUb-88" value="Contraseña" style="rounded=1;whiteSpace=wrap;html=1;arcSize=50;imageHeight=24;" parent="1" vertex="1">
          <mxGeometry x="810" y="-500" width="85" height="31" as="geometry" />
        </mxCell>
        <mxCell id="I0plkO9ro6BUK9R8KUUb-89" value="" style="endArrow=none;html=1;rounded=0;entryX=0.5;entryY=1;entryDx=0;entryDy=0;exitX=0;exitY=0;exitDx=0;exitDy=0;" parent="1" source="I0plkO9ro6BUK9R8KUUb-84" target="I0plkO9ro6BUK9R8KUUb-85" edge="1">
          <mxGeometry width="50" height="50" relative="1" as="geometry">
            <mxPoint x="620" y="-269" as="sourcePoint" />
            <mxPoint x="670" y="-319" as="targetPoint" />
          </mxGeometry>
        </mxCell>
        <mxCell id="I0plkO9ro6BUK9R8KUUb-90" value="" style="endArrow=none;html=1;rounded=0;entryX=0.5;entryY=1;entryDx=0;entryDy=0;exitX=0.25;exitY=0;exitDx=0;exitDy=0;" parent="1" source="I0plkO9ro6BUK9R8KUUb-84" target="I0plkO9ro6BUK9R8KUUb-86" edge="1">
          <mxGeometry width="50" height="50" relative="1" as="geometry">
            <mxPoint x="800" y="-269" as="sourcePoint" />
            <mxPoint x="850" y="-319" as="targetPoint" />
          </mxGeometry>
        </mxCell>
        <mxCell id="I0plkO9ro6BUK9R8KUUb-91" value="" style="endArrow=none;html=1;rounded=0;entryX=0.5;entryY=1;entryDx=0;entryDy=0;exitX=0.75;exitY=0;exitDx=0;exitDy=0;" parent="1" source="I0plkO9ro6BUK9R8KUUb-84" target="I0plkO9ro6BUK9R8KUUb-87" edge="1">
          <mxGeometry width="50" height="50" relative="1" as="geometry">
            <mxPoint x="710" y="-279" as="sourcePoint" />
            <mxPoint x="760" y="-329" as="targetPoint" />
          </mxGeometry>
        </mxCell>
        <mxCell id="I0plkO9ro6BUK9R8KUUb-96" value="PASAJE" style="rounded=0;whiteSpace=wrap;html=1;strokeWidth=2;" parent="1" vertex="1">
          <mxGeometry x="1200" y="-439" width="120" height="60" as="geometry" />
        </mxCell>
        <mxCell id="I0plkO9ro6BUK9R8KUUb-97" value="&lt;u&gt;Número de Pasaje&lt;/u&gt;" style="rounded=1;whiteSpace=wrap;html=1;arcSize=50;imageHeight=24;" parent="1" vertex="1">
          <mxGeometry x="1080" y="-500" width="120" height="31" as="geometry" />
        </mxCell>
        <mxCell id="I0plkO9ro6BUK9R8KUUb-98" value="Fecha de compra" style="rounded=1;whiteSpace=wrap;html=1;arcSize=50;imageHeight=24;" parent="1" vertex="1">
          <mxGeometry x="1200" y="-530" width="120" height="31" as="geometry" />
        </mxCell>
        <mxCell id="I0plkO9ro6BUK9R8KUUb-99" value="Precio" style="rounded=1;whiteSpace=wrap;html=1;arcSize=50;imageHeight=24;" parent="1" vertex="1">
          <mxGeometry x="1320" y="-499" width="70" height="31" as="geometry" />
        </mxCell>
        <mxCell id="I0plkO9ro6BUK9R8KUUb-100" value="TIENE" style="rhombus;whiteSpace=wrap;html=1;strokeWidth=2;" parent="1" vertex="1">
          <mxGeometry x="920" y="-434" width="120" height="50" as="geometry" />
        </mxCell>
        <mxCell id="I0plkO9ro6BUK9R8KUUb-101" value="" style="endArrow=none;html=1;rounded=0;entryX=0;entryY=0.5;entryDx=0;entryDy=0;exitX=1;exitY=0.5;exitDx=0;exitDy=0;strokeWidth=2;" parent="1" source="I0plkO9ro6BUK9R8KUUb-84" target="I0plkO9ro6BUK9R8KUUb-100" edge="1">
          <mxGeometry width="50" height="50" relative="1" as="geometry">
            <mxPoint x="880" y="-309" as="sourcePoint" />
            <mxPoint x="930" y="-359" as="targetPoint" />
          </mxGeometry>
        </mxCell>
        <mxCell id="I0plkO9ro6BUK9R8KUUb-102" value="" style="endArrow=none;html=1;rounded=0;entryX=0;entryY=0.5;entryDx=0;entryDy=0;exitX=1;exitY=0.5;exitDx=0;exitDy=0;startArrow=oval;startFill=1;startSize=8;endSize=8;strokeWidth=2;" parent="1" source="I0plkO9ro6BUK9R8KUUb-100" target="I0plkO9ro6BUK9R8KUUb-96" edge="1">
          <mxGeometry width="50" height="50" relative="1" as="geometry">
            <mxPoint x="1060" y="-399" as="sourcePoint" />
            <mxPoint x="1200" y="-379" as="targetPoint" />
          </mxGeometry>
        </mxCell>
        <mxCell id="I0plkO9ro6BUK9R8KUUb-103" value="" style="endArrow=none;html=1;rounded=0;entryX=0.5;entryY=1;entryDx=0;entryDy=0;exitX=1;exitY=0;exitDx=0;exitDy=0;" parent="1" source="I0plkO9ro6BUK9R8KUUb-96" target="I0plkO9ro6BUK9R8KUUb-99" edge="1">
          <mxGeometry width="50" height="50" relative="1" as="geometry">
            <mxPoint x="1320" y="-259" as="sourcePoint" />
            <mxPoint x="1370" y="-309" as="targetPoint" />
          </mxGeometry>
        </mxCell>
        <mxCell id="I0plkO9ro6BUK9R8KUUb-104" value="" style="endArrow=none;html=1;rounded=0;entryX=0.5;entryY=1;entryDx=0;entryDy=0;exitX=0;exitY=0;exitDx=0;exitDy=0;" parent="1" source="I0plkO9ro6BUK9R8KUUb-96" target="I0plkO9ro6BUK9R8KUUb-97" edge="1">
          <mxGeometry width="50" height="50" relative="1" as="geometry">
            <mxPoint x="1090" y="-279" as="sourcePoint" />
            <mxPoint x="1140" y="-319" as="targetPoint" />
          </mxGeometry>
        </mxCell>
        <mxCell id="I0plkO9ro6BUK9R8KUUb-111" value="VUELO" style="rounded=0;whiteSpace=wrap;html=1;strokeWidth=2;" parent="1" vertex="1">
          <mxGeometry x="1200" y="-10" width="120" height="60" as="geometry" />
        </mxCell>
        <mxCell id="I0plkO9ro6BUK9R8KUUb-112" value="&lt;u&gt;Código&lt;/u&gt;" style="rounded=1;whiteSpace=wrap;html=1;arcSize=50;imageHeight=24;" parent="1" vertex="1">
          <mxGeometry x="1115" y="-62.5" width="70" height="32.5" as="geometry" />
        </mxCell>
        <mxCell id="I0plkO9ro6BUK9R8KUUb-113" value="Fecha y hora de salida" style="rounded=1;whiteSpace=wrap;html=1;arcSize=50;imageHeight=24;" parent="1" vertex="1">
          <mxGeometry x="1115" y="-100" width="140" height="30" as="geometry" />
        </mxCell>
        <mxCell id="I0plkO9ro6BUK9R8KUUb-122" value="LLEGAN" style="rhombus;whiteSpace=wrap;html=1;strokeWidth=2;" parent="1" vertex="1">
          <mxGeometry x="1180" y="150" width="60" height="130" as="geometry" />
        </mxCell>
        <mxCell id="I0plkO9ro6BUK9R8KUUb-123" value="SALEN" style="rhombus;whiteSpace=wrap;html=1;strokeWidth=2;" parent="1" vertex="1">
          <mxGeometry x="1280" y="150" width="60" height="130" as="geometry" />
        </mxCell>
        <mxCell id="I0plkO9ro6BUK9R8KUUb-124" value="" style="endArrow=none;html=1;rounded=0;entryX=0.25;entryY=1;entryDx=0;entryDy=0;exitX=0.5;exitY=0;exitDx=0;exitDy=0;startArrow=oval;startFill=1;endSize=8;startSize=8;strokeWidth=2;" parent="1" source="I0plkO9ro6BUK9R8KUUb-122" target="I0plkO9ro6BUK9R8KUUb-111" edge="1">
          <mxGeometry width="50" height="50" relative="1" as="geometry">
            <mxPoint x="1210" y="160" as="sourcePoint" />
            <mxPoint x="1260" y="110" as="targetPoint" />
          </mxGeometry>
        </mxCell>
        <mxCell id="I0plkO9ro6BUK9R8KUUb-125" value="" style="endArrow=none;html=1;rounded=0;entryX=0.75;entryY=1;entryDx=0;entryDy=0;exitX=0.5;exitY=0;exitDx=0;exitDy=0;startArrow=oval;startFill=1;startSize=8;endSize=8;strokeWidth=2;" parent="1" source="I0plkO9ro6BUK9R8KUUb-123" target="I0plkO9ro6BUK9R8KUUb-111" edge="1">
          <mxGeometry width="50" height="50" relative="1" as="geometry">
            <mxPoint x="1250" y="100" as="sourcePoint" />
            <mxPoint x="1300" y="50" as="targetPoint" />
          </mxGeometry>
        </mxCell>
        <mxCell id="I0plkO9ro6BUK9R8KUUb-126" value="" style="endArrow=none;html=1;rounded=0;entryX=0.5;entryY=1;entryDx=0;entryDy=0;exitX=0.5;exitY=0;exitDx=0;exitDy=0;strokeWidth=2;" parent="1" source="I0plkO9ro6BUK9R8KUUb-149" target="I0plkO9ro6BUK9R8KUUb-122" edge="1">
          <mxGeometry width="50" height="50" relative="1" as="geometry">
            <mxPoint x="1170" y="250" as="sourcePoint" />
            <mxPoint x="1220" y="200" as="targetPoint" />
          </mxGeometry>
        </mxCell>
        <mxCell id="I0plkO9ro6BUK9R8KUUb-127" value="" style="endArrow=none;html=1;rounded=0;entryX=0.5;entryY=1;entryDx=0;entryDy=0;exitX=0.5;exitY=0;exitDx=0;exitDy=0;strokeWidth=2;" parent="1" source="I0plkO9ro6BUK9R8KUUb-149" target="I0plkO9ro6BUK9R8KUUb-123" edge="1">
          <mxGeometry width="50" height="50" relative="1" as="geometry">
            <mxPoint x="1350" y="230" as="sourcePoint" />
            <mxPoint x="1370" y="160" as="targetPoint" />
          </mxGeometry>
        </mxCell>
        <mxCell id="I0plkO9ro6BUK9R8KUUb-133" value="TIENE" style="rhombus;whiteSpace=wrap;html=1;strokeWidth=2;" parent="1" vertex="1">
          <mxGeometry x="850" y="215" width="100" height="60" as="geometry" />
        </mxCell>
        <mxCell id="I0plkO9ro6BUK9R8KUUb-134" value="" style="endArrow=none;html=1;rounded=0;entryX=0;entryY=0.5;entryDx=0;entryDy=0;exitX=1;exitY=0.5;exitDx=0;exitDy=0;strokeWidth=2;" parent="1" source="I0plkO9ro6BUK9R8KUUb-161" target="I0plkO9ro6BUK9R8KUUb-133" edge="1">
          <mxGeometry width="50" height="50" relative="1" as="geometry">
            <mxPoint x="630" y="310" as="sourcePoint" />
            <mxPoint x="645" y="295" as="targetPoint" />
          </mxGeometry>
        </mxCell>
        <mxCell id="I0plkO9ro6BUK9R8KUUb-135" value="" style="endArrow=oval;html=1;rounded=0;endFill=1;entryX=1;entryY=0.5;entryDx=0;entryDy=0;exitX=0;exitY=0.5;exitDx=0;exitDy=0;endSize=8;startSize=8;strokeWidth=2;" parent="1" source="I0plkO9ro6BUK9R8KUUb-149" target="I0plkO9ro6BUK9R8KUUb-133" edge="1">
          <mxGeometry width="50" height="50" relative="1" as="geometry">
            <mxPoint x="895" y="255" as="sourcePoint" />
            <mxPoint x="735" y="425" as="targetPoint" />
            <Array as="points">
              <mxPoint x="950" y="495" />
            </Array>
          </mxGeometry>
        </mxCell>
        <mxCell id="I0plkO9ro6BUK9R8KUUb-136" value="" style="endArrow=none;html=1;rounded=0;entryX=0.5;entryY=1;entryDx=0;entryDy=0;startArrow=oval;startFill=1;exitX=0.5;exitY=0;exitDx=0;exitDy=0;endSize=10;startSize=8;strokeWidth=2;" parent="1" source="I0plkO9ro6BUK9R8KUUb-137" target="I0plkO9ro6BUK9R8KUUb-96" edge="1">
          <mxGeometry width="50" height="50" relative="1" as="geometry">
            <mxPoint x="1330" y="-260" as="sourcePoint" />
            <mxPoint x="1290" y="-270" as="targetPoint" />
          </mxGeometry>
        </mxCell>
        <mxCell id="I0plkO9ro6BUK9R8KUUb-138" value="" style="endArrow=none;html=1;rounded=0;entryX=0.5;entryY=1;entryDx=0;entryDy=0;exitX=0.5;exitY=0;exitDx=0;exitDy=0;strokeWidth=2;" parent="1" source="I0plkO9ro6BUK9R8KUUb-111" target="I0plkO9ro6BUK9R8KUUb-137" edge="1">
          <mxGeometry width="50" height="50" relative="1" as="geometry">
            <mxPoint x="1230" y="-100" as="sourcePoint" />
            <mxPoint x="1280" y="-150" as="targetPoint" />
          </mxGeometry>
        </mxCell>
        <mxCell id="I0plkO9ro6BUK9R8KUUb-139" value="Fecha y hora de llegada" style="rounded=1;whiteSpace=wrap;html=1;arcSize=50;imageHeight=24;" parent="1" vertex="1">
          <mxGeometry x="1270" y="-130" width="140" height="30" as="geometry" />
        </mxCell>
        <mxCell id="I0plkO9ro6BUK9R8KUUb-140" value="Precio" style="rounded=1;whiteSpace=wrap;html=1;arcSize=50;imageHeight=24;" parent="1" vertex="1">
          <mxGeometry x="1320" y="-92.5" width="70" height="30" as="geometry" />
        </mxCell>
        <mxCell id="I0plkO9ro6BUK9R8KUUb-141" value="Cantidad de asientos" style="rounded=1;whiteSpace=wrap;html=1;arcSize=50;imageHeight=24;" parent="1" vertex="1">
          <mxGeometry x="1350" y="-60" width="140" height="30" as="geometry" />
        </mxCell>
        <mxCell id="I0plkO9ro6BUK9R8KUUb-143" value="" style="endArrow=none;html=1;rounded=0;entryX=0.5;entryY=1;entryDx=0;entryDy=0;exitX=0;exitY=0;exitDx=0;exitDy=0;" parent="1" source="I0plkO9ro6BUK9R8KUUb-111" target="I0plkO9ro6BUK9R8KUUb-112" edge="1">
          <mxGeometry width="50" height="50" relative="1" as="geometry">
            <mxPoint x="1110" y="70" as="sourcePoint" />
            <mxPoint x="1160" y="20" as="targetPoint" />
          </mxGeometry>
        </mxCell>
        <mxCell id="I0plkO9ro6BUK9R8KUUb-144" value="" style="endArrow=none;html=1;rounded=0;entryX=0.711;entryY=0.99;entryDx=0;entryDy=0;entryPerimeter=0;exitX=0.25;exitY=0;exitDx=0;exitDy=0;" parent="1" source="I0plkO9ro6BUK9R8KUUb-111" target="I0plkO9ro6BUK9R8KUUb-113" edge="1">
          <mxGeometry width="50" height="50" relative="1" as="geometry">
            <mxPoint x="1020" y="110" as="sourcePoint" />
            <mxPoint x="1070" y="60" as="targetPoint" />
          </mxGeometry>
        </mxCell>
        <mxCell id="I0plkO9ro6BUK9R8KUUb-145" value="" style="endArrow=none;html=1;rounded=0;entryX=0.25;entryY=1;entryDx=0;entryDy=0;exitX=0.75;exitY=0;exitDx=0;exitDy=0;" parent="1" source="I0plkO9ro6BUK9R8KUUb-111" target="I0plkO9ro6BUK9R8KUUb-139" edge="1">
          <mxGeometry width="50" height="50" relative="1" as="geometry">
            <mxPoint x="840" y="210" as="sourcePoint" />
            <mxPoint x="890" y="160" as="targetPoint" />
          </mxGeometry>
        </mxCell>
        <mxCell id="I0plkO9ro6BUK9R8KUUb-146" value="" style="endArrow=none;html=1;rounded=0;entryX=0.25;entryY=1;entryDx=0;entryDy=0;exitX=1;exitY=0;exitDx=0;exitDy=0;" parent="1" source="I0plkO9ro6BUK9R8KUUb-111" target="I0plkO9ro6BUK9R8KUUb-140" edge="1">
          <mxGeometry width="50" height="50" relative="1" as="geometry">
            <mxPoint x="960" y="180" as="sourcePoint" />
            <mxPoint x="1010" y="130" as="targetPoint" />
          </mxGeometry>
        </mxCell>
        <mxCell id="I0plkO9ro6BUK9R8KUUb-147" value="" style="endArrow=none;html=1;rounded=0;entryX=0.25;entryY=1;entryDx=0;entryDy=0;exitX=1;exitY=0;exitDx=0;exitDy=0;" parent="1" source="I0plkO9ro6BUK9R8KUUb-111" target="I0plkO9ro6BUK9R8KUUb-141" edge="1">
          <mxGeometry width="50" height="50" relative="1" as="geometry">
            <mxPoint x="860" y="160" as="sourcePoint" />
            <mxPoint x="910" y="110" as="targetPoint" />
          </mxGeometry>
        </mxCell>
        <mxCell id="I0plkO9ro6BUK9R8KUUb-148" value="" style="endArrow=none;html=1;rounded=0;entryX=0.5;entryY=1;entryDx=0;entryDy=0;exitX=0.5;exitY=0;exitDx=0;exitDy=0;" parent="1" source="I0plkO9ro6BUK9R8KUUb-96" target="I0plkO9ro6BUK9R8KUUb-98" edge="1">
          <mxGeometry width="50" height="50" relative="1" as="geometry">
            <mxPoint x="1490" y="-310" as="sourcePoint" />
            <mxPoint x="1540" y="-360" as="targetPoint" />
          </mxGeometry>
        </mxCell>
        <mxCell id="I0plkO9ro6BUK9R8KUUb-149" value="AEROPUERTO" style="rounded=0;whiteSpace=wrap;html=1;strokeWidth=2;" parent="1" vertex="1">
          <mxGeometry x="1200" y="465" width="120" height="60" as="geometry" />
        </mxCell>
        <mxCell id="I0plkO9ro6BUK9R8KUUb-150" value="Impuesto de partida" style="rounded=1;whiteSpace=wrap;html=1;arcSize=50;imageHeight=24;" parent="1" vertex="1">
          <mxGeometry x="1340" y="370" width="120" height="30" as="geometry" />
        </mxCell>
        <mxCell id="I0plkO9ro6BUK9R8KUUb-151" value="Dirección" style="rounded=1;whiteSpace=wrap;html=1;arcSize=50;imageHeight=24;" parent="1" vertex="1">
          <mxGeometry x="1300" y="330" width="90" height="30" as="geometry" />
        </mxCell>
        <mxCell id="I0plkO9ro6BUK9R8KUUb-152" value="Nombre" style="rounded=1;whiteSpace=wrap;html=1;arcSize=50;imageHeight=24;" parent="1" vertex="1">
          <mxGeometry x="1140" y="370" width="80" height="30" as="geometry" />
        </mxCell>
        <mxCell id="I0plkO9ro6BUK9R8KUUb-153" value="Impuesto de llegada" style="rounded=1;whiteSpace=wrap;html=1;arcSize=50;imageHeight=24;" parent="1" vertex="1">
          <mxGeometry x="1360" y="414.5" width="120" height="33.5" as="geometry" />
        </mxCell>
        <mxCell id="I0plkO9ro6BUK9R8KUUb-154" value="&lt;u&gt;Código&lt;/u&gt;" style="rounded=1;whiteSpace=wrap;html=1;arcSize=50;imageHeight=24;" parent="1" vertex="1">
          <mxGeometry x="1130" y="414" width="70" height="34" as="geometry" />
        </mxCell>
        <mxCell id="I0plkO9ro6BUK9R8KUUb-155" value="" style="endArrow=none;html=1;rounded=0;entryX=0.5;entryY=1;entryDx=0;entryDy=0;exitX=0;exitY=0;exitDx=0;exitDy=0;" parent="1" source="I0plkO9ro6BUK9R8KUUb-149" target="I0plkO9ro6BUK9R8KUUb-154" edge="1">
          <mxGeometry width="50" height="50" relative="1" as="geometry">
            <mxPoint x="1120" y="540" as="sourcePoint" />
            <mxPoint x="1170" y="490" as="targetPoint" />
          </mxGeometry>
        </mxCell>
        <mxCell id="I0plkO9ro6BUK9R8KUUb-157" value="" style="endArrow=none;html=1;rounded=0;entryX=0.75;entryY=1;entryDx=0;entryDy=0;exitX=0.25;exitY=0;exitDx=0;exitDy=0;" parent="1" source="I0plkO9ro6BUK9R8KUUb-149" target="I0plkO9ro6BUK9R8KUUb-152" edge="1">
          <mxGeometry width="50" height="50" relative="1" as="geometry">
            <mxPoint x="1020" y="560" as="sourcePoint" />
            <mxPoint x="1070" y="510" as="targetPoint" />
          </mxGeometry>
        </mxCell>
        <mxCell id="I0plkO9ro6BUK9R8KUUb-158" value="" style="endArrow=none;html=1;rounded=0;entryX=0.25;entryY=1;entryDx=0;entryDy=0;exitX=0.75;exitY=0;exitDx=0;exitDy=0;" parent="1" source="I0plkO9ro6BUK9R8KUUb-149" target="I0plkO9ro6BUK9R8KUUb-151" edge="1">
          <mxGeometry width="50" height="50" relative="1" as="geometry">
            <mxPoint x="970" y="590" as="sourcePoint" />
            <mxPoint x="1020" y="540" as="targetPoint" />
          </mxGeometry>
        </mxCell>
        <mxCell id="I0plkO9ro6BUK9R8KUUb-159" value="" style="endArrow=none;html=1;rounded=0;entryX=0.25;entryY=1;entryDx=0;entryDy=0;exitX=1;exitY=0;exitDx=0;exitDy=0;" parent="1" source="I0plkO9ro6BUK9R8KUUb-149" target="I0plkO9ro6BUK9R8KUUb-150" edge="1">
          <mxGeometry width="50" height="50" relative="1" as="geometry">
            <mxPoint x="1400" y="560" as="sourcePoint" />
            <mxPoint x="1360" y="440" as="targetPoint" />
          </mxGeometry>
        </mxCell>
        <mxCell id="I0plkO9ro6BUK9R8KUUb-160" value="" style="endArrow=none;html=1;rounded=0;entryX=0.5;entryY=1;entryDx=0;entryDy=0;exitX=1;exitY=0;exitDx=0;exitDy=0;" parent="1" source="I0plkO9ro6BUK9R8KUUb-149" target="I0plkO9ro6BUK9R8KUUb-153" edge="1">
          <mxGeometry width="50" height="50" relative="1" as="geometry">
            <mxPoint x="1350" y="580" as="sourcePoint" />
            <mxPoint x="1400" y="530" as="targetPoint" />
          </mxGeometry>
        </mxCell>
        <mxCell id="I0plkO9ro6BUK9R8KUUb-161" value="CIUDADES" style="rounded=0;whiteSpace=wrap;html=1;strokeWidth=2;" parent="1" vertex="1">
          <mxGeometry x="570" y="215" width="120" height="60" as="geometry" />
        </mxCell>
        <mxCell id="I0plkO9ro6BUK9R8KUUb-162" value="&lt;u&gt;Código&lt;/u&gt;" style="rounded=1;whiteSpace=wrap;html=1;arcSize=50;imageHeight=24;" parent="1" vertex="1">
          <mxGeometry x="480" y="152.5" width="95" height="40" as="geometry" />
        </mxCell>
        <mxCell id="I0plkO9ro6BUK9R8KUUb-163" value="Nombre de la ciudad" style="rounded=1;whiteSpace=wrap;html=1;arcSize=50;imageHeight=24;" parent="1" vertex="1">
          <mxGeometry x="560" y="112.5" width="140" height="40" as="geometry" />
        </mxCell>
        <mxCell id="I0plkO9ro6BUK9R8KUUb-164" value="País" style="rounded=1;whiteSpace=wrap;html=1;arcSize=50;imageHeight=24;" parent="1" vertex="1">
          <mxGeometry x="705" y="160" width="80" height="32.5" as="geometry" />
        </mxCell>
        <mxCell id="I0plkO9ro6BUK9R8KUUb-165" value="" style="endArrow=none;html=1;rounded=0;entryX=0.5;entryY=1;entryDx=0;entryDy=0;exitX=0;exitY=0;exitDx=0;exitDy=0;" parent="1" source="I0plkO9ro6BUK9R8KUUb-161" target="I0plkO9ro6BUK9R8KUUb-162" edge="1">
          <mxGeometry width="50" height="50" relative="1" as="geometry">
            <mxPoint x="310" y="425" as="sourcePoint" />
            <mxPoint x="360" y="375" as="targetPoint" />
          </mxGeometry>
        </mxCell>
        <mxCell id="I0plkO9ro6BUK9R8KUUb-166" value="" style="endArrow=none;html=1;rounded=0;entryX=0.5;entryY=1;entryDx=0;entryDy=0;exitX=0.5;exitY=0;exitDx=0;exitDy=0;" parent="1" source="I0plkO9ro6BUK9R8KUUb-161" target="I0plkO9ro6BUK9R8KUUb-163" edge="1">
          <mxGeometry width="50" height="50" relative="1" as="geometry">
            <mxPoint x="550" y="435" as="sourcePoint" />
            <mxPoint x="600" y="385" as="targetPoint" />
          </mxGeometry>
        </mxCell>
        <mxCell id="I0plkO9ro6BUK9R8KUUb-167" value="" style="endArrow=none;html=1;rounded=0;entryX=0.5;entryY=1;entryDx=0;entryDy=0;exitX=1;exitY=0;exitDx=0;exitDy=0;" parent="1" source="I0plkO9ro6BUK9R8KUUb-161" target="I0plkO9ro6BUK9R8KUUb-164" edge="1">
          <mxGeometry width="50" height="50" relative="1" as="geometry">
            <mxPoint x="420" y="385" as="sourcePoint" />
            <mxPoint x="470" y="335" as="targetPoint" />
          </mxGeometry>
        </mxCell>
        <mxCell id="gK7BVY8XcYzzUaqe2WcH-1" value="" style="endArrow=none;html=1;rounded=0;entryX=0.5;entryY=1;entryDx=0;entryDy=0;exitX=1;exitY=0;exitDx=0;exitDy=0;" parent="1" source="I0plkO9ro6BUK9R8KUUb-84" target="I0plkO9ro6BUK9R8KUUb-88" edge="1">
          <mxGeometry width="50" height="50" relative="1" as="geometry">
            <mxPoint x="830" y="-310" as="sourcePoint" />
            <mxPoint x="880" y="-360" as="targetPoint" />
          </mxGeometry>
        </mxCell>
        <mxCell id="gK7BVY8XcYzzUaqe2WcH-2" value="&lt;font style=&quot;font-size: 16px;&quot;&gt;N&lt;/font&gt;" style="text;html=1;strokeColor=none;fillColor=none;align=center;verticalAlign=middle;whiteSpace=wrap;rounded=0;" parent="1" vertex="1">
          <mxGeometry x="1260" y="-379" width="30" height="30" as="geometry" />
        </mxCell>
        <mxCell id="gK7BVY8XcYzzUaqe2WcH-3" value="&lt;font style=&quot;font-size: 16px;&quot;&gt;1&lt;/font&gt;" style="text;html=1;strokeColor=none;fillColor=none;align=center;verticalAlign=middle;whiteSpace=wrap;rounded=0;" parent="1" vertex="1">
          <mxGeometry x="1260" y="-40" width="30" height="30" as="geometry" />
        </mxCell>
        <mxCell id="gK7BVY8XcYzzUaqe2WcH-4" value="&lt;font style=&quot;font-size: 16px;&quot;&gt;N&lt;/font&gt;" style="text;html=1;strokeColor=none;fillColor=none;align=center;verticalAlign=middle;whiteSpace=wrap;rounded=0;" parent="1" vertex="1">
          <mxGeometry x="1200" y="50" width="30" height="30" as="geometry" />
        </mxCell>
        <mxCell id="gK7BVY8XcYzzUaqe2WcH-5" value="&lt;font style=&quot;font-size: 16px;&quot;&gt;N&lt;/font&gt;" style="text;html=1;strokeColor=none;fillColor=none;align=center;verticalAlign=middle;whiteSpace=wrap;rounded=0;" parent="1" vertex="1">
          <mxGeometry x="1290" y="50" width="30" height="30" as="geometry" />
        </mxCell>
        <mxCell id="gK7BVY8XcYzzUaqe2WcH-6" value="&lt;font style=&quot;font-size: 16px;&quot;&gt;1&lt;/font&gt;" style="text;html=1;strokeColor=none;fillColor=none;align=center;verticalAlign=middle;whiteSpace=wrap;rounded=0;" parent="1" vertex="1">
          <mxGeometry x="1230" y="435" width="30" height="30" as="geometry" />
        </mxCell>
        <mxCell id="gK7BVY8XcYzzUaqe2WcH-7" value="&lt;font style=&quot;font-size: 16px;&quot;&gt;1&lt;/font&gt;" style="text;html=1;strokeColor=none;fillColor=none;align=center;verticalAlign=middle;whiteSpace=wrap;rounded=0;" parent="1" vertex="1">
          <mxGeometry x="1260" y="435" width="30" height="30" as="geometry" />
        </mxCell>
        <mxCell id="gK7BVY8XcYzzUaqe2WcH-8" value="&lt;font style=&quot;font-size: 16px;&quot;&gt;1&lt;/font&gt;" style="text;html=1;strokeColor=none;fillColor=none;align=center;verticalAlign=middle;whiteSpace=wrap;rounded=0;" parent="1" vertex="1">
          <mxGeometry x="780" y="-409" width="30" height="30" as="geometry" />
        </mxCell>
        <mxCell id="gK7BVY8XcYzzUaqe2WcH-9" value="&lt;font style=&quot;font-size: 16px;&quot;&gt;N&lt;/font&gt;" style="text;html=1;strokeColor=none;fillColor=none;align=center;verticalAlign=middle;whiteSpace=wrap;rounded=0;" parent="1" vertex="1">
          <mxGeometry x="1170" y="-409" width="30" height="30" as="geometry" />
        </mxCell>
        <mxCell id="gK7BVY8XcYzzUaqe2WcH-10" value="&lt;font style=&quot;font-size: 16px;&quot;&gt;N&lt;/font&gt;" style="text;html=1;strokeColor=none;fillColor=none;align=center;verticalAlign=middle;whiteSpace=wrap;rounded=0;" parent="1" vertex="1">
          <mxGeometry x="1170" y="495" width="30" height="30" as="geometry" />
        </mxCell>
        <mxCell id="gK7BVY8XcYzzUaqe2WcH-11" value="&lt;font style=&quot;font-size: 16px;&quot;&gt;1&lt;/font&gt;" style="text;html=1;strokeColor=none;fillColor=none;align=center;verticalAlign=middle;whiteSpace=wrap;rounded=0;" parent="1" vertex="1">
          <mxGeometry x="690" y="245" width="30" height="30" as="geometry" />
        </mxCell>
        <mxCell id="91E9N6SlEISGi2aE0lr8-1" value="" style="rounded=0;whiteSpace=wrap;html=1;strokeWidth=3;" vertex="1" parent="1">
          <mxGeometry x="650" y="580" width="680" height="200" as="geometry" />
        </mxCell>
        <mxCell id="91E9N6SlEISGi2aE0lr8-2" value="&lt;div&gt;&lt;b&gt;&lt;font style=&quot;font-size: 18px;&quot;&gt;RNE:&lt;/font&gt;&lt;/b&gt;&lt;/div&gt;&lt;div&gt;&lt;br&gt;&lt;/div&gt;&lt;div style=&quot;text-align: left; line-height: 170%;&quot;&gt;&lt;b&gt;CIUDAD:&lt;/b&gt; Código compuesto por 6 letras&lt;/div&gt;&lt;div style=&quot;text-align: left; line-height: 170%;&quot;&gt;&lt;b&gt;AEROPUERTO:&lt;/b&gt; Código de 3 letras, impuestos igual o mayor que cero&lt;/div&gt;&lt;div style=&quot;text-align: left; line-height: 170%;&quot;&gt;&lt;b&gt;VUELO: &lt;/b&gt;código alfanumérico de 15, fecha (yyyyMMddHHmmAER año, mes, día, hora, minutos, código del aeropuerto de salida) - fecha de llegada debe ser mayor a la de salida, asientos (minimo 100, maximo 300)&lt;/div&gt;&lt;div style=&quot;text-align: left; line-height: 170%;&quot;&gt;&lt;b&gt;PASAJES: &lt;/b&gt;Identificador autogenerado, fecha de compra automático, precio total de la venta, se calcula sumando el precio del vuelo más los impuestos que cobran los aeropuertos, tanto de salida como de llegada.&lt;/div&gt;&lt;div style=&quot;text-align: left; line-height: 170%;&quot;&gt;&lt;b&gt;EMPLEADO:&lt;/b&gt;&amp;nbsp;&quot;GERENTE VENDEDOR O ADMIN&quot;, son los tres valores permitidos para el atributo labor.&lt;/div&gt;" style="text;html=1;strokeColor=none;fillColor=none;align=center;verticalAlign=middle;whiteSpace=wrap;rounded=0;strokeWidth=3;" vertex="1" parent="1">
          <mxGeometry x="660" y="590" width="660" height="180" as="geometry" />
        </mxCell>
      </root>
    </mxGraphModel>
  </diagram>
</mxfile>
